# AST/ASF file generated using VICON BodyLanguage
# -----------------------------------------------
:version 1.10
:name VICON
:units
  mass 1.0
  length 0.45
  angle deg
:documentation
   .ast/.asf automatically generated from VICON data using
   VICON BodyBuilder and BodyLanguage model FoxedUp or BRILLIANT.MOD
:root
   order TX TY TZ RX RY RZ
   axis XYZ
   position 0 0 0  
   orientation 0 0 0 
:bonedata
  begin
     id 1 
     name lhipjoint
     direction 0.64773 -0.699417 0.302095 
     length 2.48597 
     axis 0 0 0  XYZ
  end
  begin
     id 2 
     name lfemur
     direction 0.34202 -0.939693 0  
     length 6.71947  
     axis 0 0 20  XYZ
    dof rx ry rz
    limits (-160.0 20.0)
           (-70.0 70.0)
           (-60.0 70.0)
  end
  begin
     id 3 
     name ltibia
     direction 0.34202 -0.939693 0   
     length 8.08777   
     axis 0 0 20   XYZ
    dof rx
    limits (-10.0 170.0)
  end
  begin
     id 4 
     name lfoot
     direction 0.0808503 -0.222134 0.971658   
     length 2.08264   
     axis -90 7.62852e-016 20   XYZ
    dof rx rz
    limits (-45.0 90.0)
           (-70.0 20.0)
  end
  begin
     id 5 
     name ltoes
     direction 1.53502e-011 -4.22007e-011 1   
     length 1.04662   
     axis -90 7.62852e-016 20   XYZ
    dof rx
    limits (-90.0 20.0)
  end
  begin
     id 6 
     name rhipjoint
     direction -0.610924 -0.726792 0.313919   
     length 2.39233  
     axis 0 0 0  XYZ 
  end
  begin
     id 7 
     name rfemur
     direction -0.34202 -0.939693 0   
     length 6.96955   
     axis 0 0 -20   XYZ
    dof rx ry rz
    limits (-160.0 20.0)
           (-70.0 70.0)
           (-70.0 60.0)
  end
  begin
     id 8 
     name rtibia
     direction -0.34202 -0.939693 0   
     length 8.19584   
     axis 0 0 -20   XYZ
    dof rx
    limits (-10.0 170.0)
 end
 begin
     id 9 
     name rfoot
     direction -0.077777 -0.213691 0.9738   
     length 2.07539  
     axis -90 -7.62852e-016 -20   XYZ
    dof rx rz
    limits (-45.0 90.0)
           (-20.0 70.0)
  end
  begin
     id 10 
     name rtoes
     direction -1.53558e-011 -4.22006e-011 1   
     length 1.04381   
     axis -90 -7.62852e-016 -20   XYZ
    dof rx
    limits (-90.0 20.0)
  end
  begin
     id 11 
     name lowerback
     direction -0.00971646 0.996074 0.0879841   
     length 1.67643   
     axis 0 0 0   XYZ
    dof rx ry rz
    limits (-20.0 45.0)
           (-30.0 30.0)
           (-30.0 30.0)
  end
  begin
     id 12 
     name upperback
     direction 0.0127391 0.991676 0.128127   
     length 1.63741   
     axis 0 0 0   XYZ
    dof rx ry rz
    limits (-20.0 45.0)
           (-30.0 30.0)
           (-30.0 30.0)
  end
  begin
     id 13 
     name thorax
     direction 0.0167583 0.996049 0.0872067   
     length 1.65931   
     axis 0 0 0   XYZ
    dof rx ry rz
    limits (-20.0 45.0)
           (-30.0 30.0)
           (-30.0 30.0)
  end
  begin
     id 14 
     name lowerneck
     direction -0.0317829 0.998312 0.0486079   
     length 1.79021   
     axis 0 0 0   XYZ
    dof rx ry rz
    limits (-20.0 45.0)
           (-30.0 30.0)
           (-30.0 30.0)
  end
  begin
     id 15 
     name upperneck
     direction 0.0896851 0.972452 -0.215159   
     length 1.78797   
     axis 0 0 0   XYZ
    dof rx ry rz
    limits (-20.0 45.0)
           (-30.0 30.0)
           (-30.0 30.0)
  end
  begin
     id 16
     name head
     direction 0.0310949 0.996503 -0.0775582  
     length 1.81549  
     axis 0 0 0   XYZ
    dof rx ry rz
    limits (-20.0 45.0)
           (-30.0 30.0)
           (-30.0 30.0)
  end
  begin
     id 17 
     name lclavicle
     direction 0.853638 0.502051 -0.138733  
     length 3.31627  
     axis 0 0 0   XYZ
    dof ry rz
    limits (-20.0 10.0)
           (0.0 20.0)
  end
  begin
     id 18 
     name lhumerus
     direction 1 -4.48962e-011 -1.41788e-018   
     length 5.54893   
     axis 180 -30 -90   XYZ
    dof rx ry rz
    limits (-60.0 90.0)
           (-90.0 90.0)
           (-90.0 90.0)
  end
  begin
     id 19
     name lradius
     direction 1 -4.48962e-011 -4.95754e-027   
     length 3.02898   
     axis 180 -30 -90   XYZ
    dof rx
    limits (-10.0 170.0)
  end
  begin
     id 20
     name lwrist
     direction 1 -4.48952e-011 -1.03764e-026   
     length 1.51449   
     axis 9.09556e-015 90 90   XYZ
    dof ry
    limits (-180.0 0.0)
 end
  begin
     id 21 
     name lhand
     direction 1 -4.4902e-011 -2.07528e-026   
     length 0.640951   
     axis 1.3242e-014 90 90   XYZ
    dof rx rz
    limits (-90.0 90.0)
           (-45.0 45.0)
  end
  begin
     id 22 
     name lfingers
     direction 1 -4.49014e-011 -4.15056e-026   
     length 0.516751   
     axis 2.64841e-014 90 90   XYZ
    dof rx
    limits (0.0 90.0)
  end
  begin
     id 23
     name lthumb
     direction 0.707107 -6.35008e-011 0.707107   
     length 0.741954   
     axis -90 45 2.85299e-015   XYZ
    dof rx rz
    limits (-45.0 45.0)
           (-45.0 45.0)
  end
  begin
     id 24 
     name rclavicle
     direction -0.888531 0.455324 -0.0565039   
     length 3.20126  
     axis 0 0 0   XYZ 
    dof ry rz
    limits (-10.0 20.0)
           (-20.0 0.0)
  end
  begin
     id 25 
     name rhumerus
     direction -1 -4.48946e-011 -8.98298e-028  
     length 5.3519   
     axis 180 30 90   XYZ
    dof rx ry rz
    limits (-90.0 60.0)
           (-90.0 90.0)
           (-90.0 90.0)
  end
  begin
     id 26 
     name rradius
     direction -1 -4.4899e-011 -3.18779e-027   
     length 3.02531   
     axis 180 30 90   XYZ
    dof rx
    limits (-10.0 170.0)
  end
  begin
     id 27 
     name rwrist
     direction -1 -4.4897e-011 -1.03764e-026   
     length 1.51266   
     axis 9.09556e-015 -90 -90   XYZ
    dof ry
    limits (-180.0 0.0)
  end
  begin
     id 28
     name rhand
     direction -1 -4.48941e-011 -2.07528e-026   
     length 0.78389   
     axis 1.3242e-014 -90 -90   XYZ
    dof rx rz
    limits (-90.0 90.0)
           (-45.0 45.0)
  end
  begin
     id 29
     name rfingers
     direction -1 -4.49012e-011 -4.15056e-026   
     length 0.631992   
     axis 2.64841e-014 -90 -90   XYZ
    dof rx
    limits (0.0 90.0)
  end
  begin
     id 30
     name rthumb
     direction -0.707107 -6.3496e-011 0.707107   
     length 0.907418   
     axis -90 -45 -2.85299e-015   XYZ
    dof rx rz
    limits (-45.0 45.0)
           (-45.0 45.0)
  end
:hierarchy
  begin
    root lhipjoint rhipjoint lowerback
    lhipjoint lfemur
    lfemur ltibia
    ltibia lfoot
    lfoot ltoes
    rhipjoint rfemur
    rfemur rtibia
    rtibia rfoot
    rfoot rtoes
    lowerback upperback
    upperback thorax
    thorax lowerneck lclavicle rclavicle
    lowerneck upperneck
    upperneck head
    lclavicle lhumerus
    lhumerus lradius
    lradius lwrist
    lwrist lhand lthumb
    lhand lfingers
    rclavicle rhumerus
    rhumerus rradius
    rradius rwrist
    rwrist rhand rthumb
    rhand rfingers
  end

#!OML:ASF E:\Style3\Style3.ASF
:FULLY-SPECIFIED
:DEGREES
1725
root -0.915192 17.3219 0.152556 -851.631 41.3822 -891.427
lowerback 21.5271 -2.70166 -4.98516
upperback 11.5826 -2.35726 -10.2846
thorax 0.521829 -0.191505 -7.86802
lowerneck -9.19092 -9.73788 -11.5028
upperneck 3.7945 -14.0985 28.3231
head 5.83576 -5.87687 9.82044
rclavicle -3.81667e-014 7.63333e-014
rhumerus 99.0992 -2.43576 -59.4867
rradius 18.7011
rwrist 83.1523
rhand -27.5382 17.6986
rfingers 7.12502
rthumb -0.939932 -12.2791
lclavicle -1.27222e-014 -1.11319e-014
lhumerus 52.6144 -34.6249 50.6026
lradius 124.14
lwrist 83.0001
lhand -29.1193 34.7858
lfingers 7.12502
lthumb -2.46694 64.7513
rfemur -47.7789 -14.1186 34.9742
rtibia 25.7531
rfoot -16.609 -26.2167
rtoes -14.4972
lfemur -70.4699 -15.3106 9.41932
ltibia 31.1755
lfoot -5.34304 3.85252
ltoes -29.2508
1726
root -0.918802 17.3198 0.149219 -851.524 41.3506 -891.409
lowerback 21.5271 -2.70166 -4.98516
upperback 11.5826 -2.35726 -10.2846
thorax 0.521829 -0.191505 -7.86802
lowerneck -9.19092 -9.73788 -11.5028
upperneck 3.7945 -14.0985 28.3231
head 5.83576 -5.87687 9.82044
rclavicle -3.81667e-014 7.63333e-014
rhumerus 99.0992 -2.43576 -59.4867
rradius 18.7011
rwrist 83.1523
rhand -27.5382 17.6986
rfingers 7.12502
rthumb -0.939932 -12.2791
lclavicle -1.27222e-014 -1.11319e-014
lhumerus 52.6144 -34.6249 50.6026
lradius 124.14
lwrist 83.0001
lhand -29.1193 34.7858
lfingers 7.12502
lthumb -2.46694 64.7513
rfemur -47.8949 -14.1015 35.0149
rtibia 25.7718
rfoot -16.5624 -26.2374
rtoes -14.4903
lfemur -70.5724 -15.2914 9.4978
ltibia 31.1581
lfoot -5.31064 3.86275
ltoes -29.5139
1727
root -0.923785 17.319 0.145038 -851.426 41.3448 -891.408
lowerback 21.5271 -2.70166 -4.98516
upperback 11.5826 -2.35726 -10.2846
thorax 0.521829 -0.191505 -7.86802
lowerneck -9.19092 -9.73788 -11.5028
upperneck 3.7945 -14.0985 28.3231
head 5.83576 -5.87687 9.82044
rclavicle -3.81667e-014 7.63333e-014
rhumerus 99.0992 -2.43576 -59.4867
rradius 18.7011
rwrist 83.1523
rhand -27.5382 17.6986
rfingers 7.12502
rthumb -0.939932 -12.2791
lclavicle -1.27222e-014 -1.11319e-014
lhumerus 52.6144 -34.6249 50.6026
lradius 124.14
lwrist 83.0001
lhand -29.1193 34.7858
lfingers 7.12502
lthumb -2.46694 64.7513
rfemur -48.0222 -14.1082 35.0432
rtibia 25.7797
rfoot -16.4038 -26.2473
rtoes -14.7576
lfemur -70.6847 -15.2601 9.53139
ltibia 31.1362
lfoot -5.31627 3.8534
ltoes -29.4281
1728
root -0.929446 17.3183 0.141593 -851.378 41.3655 -891.465
lowerback 21.5271 -2.70166 -4.98516
upperback 11.5826 -2.35726 -10.2846
thorax 0.521829 -0.191505 -7.86802
lowerneck -9.19092 -9.73788 -11.5028
upperneck 3.7945 -14.0985 28.3231
head 5.83576 -5.87687 9.82044
rclavicle -3.81667e-014 7.63333e-014
rhumerus 99.0992 -2.43576 -59.4867
rradius 18.7011
rwrist 83.1523
rhand -27.5382 17.6986
rfingers 7.12502
rthumb -0.939932 -12.2791
lclavicle -1.27222e-014 -1.11319e-014
lhumerus 52.6144 -34.6249 50.6026
lradius 124.14
lwrist 83.0001
lhand -29.1193 34.7858
lfingers 7.12502
lthumb -2.46694 64.7513
rfemur -48.1184 -14.0508 34.9575
rtibia 25.7814
rfoot -16.4777 -26.2917
rtoes -14.6314
lfemur -70.7751 -15.2417 9.48591
ltibia 31.0901
lfoot -5.24005 3.86659
ltoes -29.4828
1729
root -0.933693 17.3203 0.137844 -851.375 41.3421 -891.492
lowerback 21.5271 -2.70166 -4.98516
upperback 11.5826 -2.35726 -10.2846
thorax 0.521829 -0.191505 -7.86802
lowerneck -9.19092 -9.73788 -11.5028
upperneck 3.7945 -14.0985 28.3231
head 5.83576 -5.87687 9.82044
rclavicle -3.81667e-014 7.63333e-014
rhumerus 99.0992 -2.43576 -59.4867
rradius 18.7011
rwrist 83.1523
rhand -27.5382 17.6986
rfingers 7.12502
rthumb -0.939932 -12.2791
lclavicle -1.27222e-014 -1.11319e-014
lhumerus 52.6144 -34.6249 50.6026
lradius 124.14
lwrist 83.0001
lhand -29.1193 34.7858
lfingers 7.12502
lthumb -2.46694 64.7513
rfemur -48.1304 -14.0299 34.9078
rtibia 25.763
rfoot -16.5041 -26.329
rtoes -14.6225
lfemur -70.7852 -15.2399 9.44762
ltibia 31.0345
lfoot -5.17661 3.83895
ltoes -29.5475
1730
root -0.936696 17.3214 0.134357 -851.34 41.3041 -891.473
lowerback 21.5271 -2.70166 -4.98516
upperback 11.5826 -2.35726 -10.2846
thorax 0.521829 -0.191505 -7.86802
lowerneck -9.19092 -9.73788 -11.5028
upperneck 3.7945 -14.0985 28.3231
head 5.83576 -5.87687 9.82044
rclavicle -3.81667e-014 7.63333e-014
rhumerus 99.0992 -2.43576 -59.4867
rradius 18.7011
rwrist 83.1523
rhand -27.5382 17.6986
rfingers 7.12502
rthumb -0.939932 -12.2791
lclavicle -1.27222e-014 -1.11319e-014
lhumerus 52.6144 -34.6249 50.6026
lradius 124.14
lwrist 83.0001
lhand -29.1193 34.7858
lfingers 7.12502
lthumb -2.46694 64.7513
rfemur -48.1179 -13.9736 34.8906
rtibia 25.7243
rfoot -16.5413 -26.3938
rtoes -14.2195
lfemur -70.7764 -15.2116 9.43576
ltibia 30.9789
lfoot -5.16815 3.76371
ltoes -29.6016
1731
root -0.940614 17.3212 0.130939 -851.295 41.2553 -891.418
lowerback 21.5271 -2.70166 -4.98516
upperback 11.5826 -2.35726 -10.2846
thorax 0.521829 -0.191505 -7.86802
lowerneck -9.19092 -9.73788 -11.5028
upperneck 3.7945 -14.0985 28.3231
head 5.83576 -5.87687 9.82044
rclavicle -3.81667e-014 7.63333e-014
rhumerus 99.0992 -2.43576 -59.4867
rradius 18.7011
rwrist 83.1523
rhand -27.5382 17.6986
rfingers 7.12502
rthumb -0.939932 -12.2791
lclavicle -1.27222e-014 -1.11319e-014
lhumerus 52.6144 -34.6249 50.6026
lradius 124.14
lwrist 83.0001
lhand -29.1193 34.7858
lfingers 7.12502
lthumb -2.46694 64.7513
rfemur -48.0838 -13.9613 34.9345
rtibia 25.6512
rfoot -16.5039 -26.4156
rtoes -13.9537
lfemur -70.7632 -15.1394 9.38544
ltibia 30.9529
lfoot -5.16318 3.65148
ltoes -29.6014
1732
root -0.943033 17.322 0.127419 -851.329 41.2685 -891.426
lowerback 21.5271 -2.70166 -4.98516
upperback 11.5826 -2.35726 -10.2846
thorax 0.521829 -0.191505 -7.86802
lowerneck -9.19092 -9.73788 -11.5028
upperneck 3.7945 -14.0985 28.3231
head 5.83576 -5.87687 9.82044
rclavicle -3.81667e-014 7.63333e-014
rhumerus 99.0992 -2.43576 -59.4867
rradius 18.7011
rwrist 83.1523
rhand -27.5382 17.6986
rfingers 7.12502
rthumb -0.939932 -12.2791
lclavicle -1.27222e-014 -1.11319e-014
lhumerus 52.6144 -34.6249 50.6026
lradius 124.14
lwrist 83.0001
lhand -29.1193 34.7858
lfingers 7.12502
lthumb -2.46694 64.7513
rfemur -48.0005 -13.8923 34.8433
rtibia 25.5928
rfoot -16.3738 -26.5137
rtoes -14.2481
lfemur -70.7029 -15.0861 9.25286
ltibia 30.9379
lfoot -5.17218 3.5402
ltoes -29.3536
1733
root -0.94502 17.3241 0.124276 -851.338 41.2455 -891.429
lowerback 21.5271 -2.70166 -4.98516
upperback 11.5826 -2.35726 -10.2846
thorax 0.521829 -0.191505 -7.86802
lowerneck -9.19092 -9.73788 -11.5028
upperneck 3.7945 -14.0985 28.3231
head 5.83576 -5.87687 9.82044
rclavicle -3.81667e-014 7.63333e-014
rhumerus 99.0992 -2.43576 -59.4867
rradius 18.7011
rwrist 83.1523
rhand -27.5382 17.6986
rfingers 7.12502
rthumb -0.939932 -12.2791
lclavicle -1.27222e-014 -1.11319e-014
lhumerus 52.6144 -34.6249 50.6026
lradius 124.14
lwrist 83.0001
lhand -29.1193 34.7858
lfingers 7.12502
lthumb -2.46694 64.7513
rfemur -47.9529 -13.8685 34.821
rtibia 25.5436
rfoot -16.3381 -26.5785
rtoes -14.2402
lfemur -70.6659 -15.0359 9.15274
ltibia 30.9301
lfoot -5.18909 3.42957
ltoes -29.4082
1734
root -0.948036 17.3242 0.121328 -851.328 41.2168 -891.442
lowerback 21.5271 -2.70166 -4.98516
upperback 11.5826 -2.35726 -10.2846
thorax 0.521829 -0.191505 -7.86802
lowerneck -9.19092 -9.73788 -11.5028
upperneck 3.7945 -14.0985 28.3231
head 5.83576 -5.87687 9.82044
rclavicle -3.81667e-014 7.63333e-014
rhumerus 99.0992 -2.43576 -59.4867
rradius 18.7011
rwrist 83.1523
rhand -27.5382 17.6986
rfingers 7.12502
rthumb -0.939932 -12.2791
lclavicle -1.27222e-014 -1.11319e-014
lhumerus 52.6144 -34.6249 50.6026
lradius 124.14
lwrist 83.0001
lhand -29.1193 34.7858
lfingers 7.12502
lthumb -2.46694 64.7513
rfemur -47.9459 -13.8411 34.7967
rtibia 25.5098
rfoot -16.3852 -26.6187
rtoes -14.1044
lfemur -70.6758 -14.9779 9.0539
ltibia 30.9204
lfoot -5.20427 3.31832
ltoes -29.884
1735
root -0.950511 17.3247 0.117319 -851.297 41.1968 -891.423
lowerback 21.5271 -2.70166 -4.98516
upperback 11.5826 -2.35726 -10.2846
thorax 0.521829 -0.191505 -7.86802
lowerneck -9.19092 -9.73788 -11.5028
upperneck 3.7945 -14.0985 28.3231
head 5.83576 -5.87687 9.82044
rclavicle -3.81667e-014 7.63333e-014
rhumerus 99.0992 -2.43576 -59.4867
rradius 18.7011
rwrist 83.1523
rhand -27.5382 17.6986
rfingers 7.12502
rthumb -0.939932 -12.2791
lclavicle -1.27222e-014 -1.11319e-014
lhumerus 52.6144 -34.6249 50.6026
lradius 124.14
lwrist 83.0001
lhand -29.1193 34.7858
lfingers 7.12502
lthumb -2.46694 64.7513
rfemur -47.9353 -13.8164 34.7847
rtibia 25.4701
rfoot -16.5007 -26.5894
rtoes -13.8192
lfemur -70.6993 -14.9332 9.01885
ltibia 30.9204
lfoot -5.18864 3.23605
ltoes -29.5224
1736
root -0.952108 17.3246 0.113651 -851.31 41.2102 -891.44
lowerback 21.5271 -2.70166 -4.98516
upperback 11.5826 -2.35726 -10.2846
thorax 0.521829 -0.191505 -7.86802
lowerneck -9.19092 -9.73788 -11.5028
upperneck 3.7945 -14.0985 28.3231
head 5.83576 -5.87687 9.82044
rclavicle -3.81667e-014 7.63333e-014
rhumerus 99.0992 -2.43576 -59.4867
rradius 18.7011
rwrist 83.1523
rhand -27.5382 17.6986
rfingers 7.12502
rthumb -0.939932 -12.2791
lclavicle -1.27222e-014 -1.11319e-014
lhumerus 52.6144 -34.6249 50.6026
lradius 124.14
lwrist 83.0001
lhand -29.1193 34.7858
lfingers 7.12502
lthumb -2.46694 64.7513
rfemur -47.9088 -13.8043 34.7269
rtibia 25.4314
rfoot -16.5061 -26.5719
rtoes -13.4883
lfemur -70.6881 -14.9009 8.93237
ltibia 30.9299
lfoot -5.21595 3.14168
ltoes -29.1147
1737
root -0.953763 17.3261 0.109989 -851.295 41.1779 -891.411
lowerback 21.5271 -2.70166 -4.98516
upperback 11.5826 -2.35726 -10.2846
thorax 0.521829 -0.191505 -7.86802
lowerneck -9.19092 -9.73788 -11.5028
upperneck 3.7945 -14.0985 28.3231
head 5.83576 -5.87687 9.82044
rclavicle -3.81667e-014 7.63333e-014
rhumerus 99.0992 -2.43576 -59.4867
rradius 18.7011
rwrist 83.1523
rhand -27.5382 17.6986
rfingers 7.12502
rthumb -0.939932 -12.2791
lclavicle -1.27222e-014 -1.11319e-014
lhumerus 52.6144 -34.6249 50.6026
lradius 124.14
lwrist 83.0001
lhand -29.1193 34.7858
lfingers 7.12502
lthumb -2.46694 64.7513
rfemur -47.8849 -13.8483 34.7819
rtibia 25.3877
rfoot -16.376 -26.5807
rtoes -13.5801
lfemur -70.6873 -14.8581 8.89648
ltibia 30.9566
lfoot -5.22414 3.02292
ltoes -29.2968
1738
root -0.954787 17.3263 0.105298 -851.244 41.1618 -891.355
lowerback 21.5271 -2.70166 -4.98516
upperback 11.5826 -2.35726 -10.2846
thorax 0.521829 -0.191505 -7.86802
lowerneck -9.19092 -9.73788 -11.5028
upperneck 3.7945 -14.0985 28.3231
head 5.83576 -5.87687 9.82044
rclavicle -3.81667e-014 7.63333e-014
rhumerus 99.0992 -2.43576 -59.4867
rradius 18.7011
rwrist 83.1523
rhand -27.5382 17.6986
rfingers 7.12502
rthumb -0.939932 -12.2791
lclavicle -1.27222e-014 -1.11319e-014
lhumerus 52.6144 -34.6249 50.6026
lradius 124.14
lwrist 83.0001
lhand -29.1193 34.7858
lfingers 7.12502
lthumb -2.46694 64.7513
rfemur -47.8715 -13.8541 34.8265
rtibia 25.3561
rfoot -16.4127 -26.5255
rtoes -13.3614
lfemur -70.699 -14.8191 8.88416
ltibia 30.9898
lfoot -5.21947 2.99182
ltoes -29.3631
1739
root -0.955556 17.3239 0.100429 -851.215 41.1523 -891.301
lowerback 21.5271 -2.70166 -4.98516
upperback 11.5826 -2.35726 -10.2846
thorax 0.521829 -0.191505 -7.86802
lowerneck -9.19092 -9.73788 -11.5028
upperneck 3.7945 -14.0985 28.3231
head 5.83576 -5.87687 9.82044
rclavicle -3.81667e-014 7.63333e-014
rhumerus 99.0992 -2.43576 -59.4867
rradius 18.7011
rwrist 83.1523
rhand -27.5382 17.6986
rfingers 7.12502
rthumb -0.939932 -12.2791
lclavicle -1.27222e-014 -1.11319e-014
lhumerus 52.6144 -34.6249 50.6026
lradius 124.14
lwrist 83.0001
lhand -29.1193 34.7858
lfingers 7.12502
lthumb -2.46694 64.7513
rfemur -47.8325 -13.8604 34.8651
rtibia 25.3223
rfoot -16.3767 -26.5395
rtoes -13.6656
lfemur -70.6983 -14.8136 8.89245
ltibia 31.0259
lfoot -5.2098 3.03706
ltoes -29.1255
